<svg width="188" height="62" viewBox="0 0 188 62" fill="none" xmlns="http://www.w3.org/2000/svg">
<rect width="188" height="62" rx="5" fill="url(#paint0_linear_395_941)"/>
<path d="M61.3812 33.3223H64.0668C63.9952 34.2728 63.7315 35.1159 63.2758 35.8516C62.8201 36.5807 62.1853 37.1536 61.3715 37.5703C60.5577 37.987 59.5714 38.1953 58.4125 38.1953C57.5206 38.1953 56.7165 38.0391 56.0004 37.7266C55.2908 37.4076 54.682 36.9551 54.1742 36.3691C53.6729 35.7767 53.2888 35.0671 53.0219 34.2402C52.7549 33.4069 52.6215 32.4727 52.6215 31.4375V30.3535C52.6215 29.3184 52.7582 28.3841 53.0316 27.5508C53.3051 26.7174 53.6957 26.0078 54.2035 25.4219C54.7178 24.8294 55.3331 24.3737 56.0492 24.0547C56.7719 23.7357 57.5792 23.5762 58.4711 23.5762C59.6299 23.5762 60.6098 23.791 61.4105 24.2207C62.2113 24.6439 62.8331 25.2266 63.2758 25.9688C63.7185 26.7109 63.9854 27.5638 64.0766 28.5273H61.391C61.3389 27.9284 61.2087 27.4206 61.0004 27.0039C60.7986 26.5872 60.4926 26.2715 60.0824 26.0566C59.6788 25.8353 59.1417 25.7246 58.4711 25.7246C57.9503 25.7246 57.4913 25.8223 57.0941 26.0176C56.7035 26.2129 56.378 26.5059 56.1176 26.8965C55.8572 27.2806 55.6618 27.7624 55.5316 28.3418C55.4014 28.9147 55.3363 29.5788 55.3363 30.334V31.4375C55.3363 32.1602 55.3949 32.8079 55.5121 33.3809C55.6293 33.9538 55.8116 34.4388 56.059 34.8359C56.3064 35.2331 56.6254 35.5358 57.016 35.7441C57.4066 35.9525 57.8721 36.0566 58.4125 36.0566C59.0701 36.0566 59.6039 35.9525 60.0141 35.7441C60.4307 35.5358 60.7465 35.2298 60.9613 34.8262C61.1827 34.4225 61.3227 33.9212 61.3812 33.3223ZM65.0926 32.8242V32.6191C65.0926 31.8444 65.2033 31.1315 65.4246 30.4805C65.646 29.8229 65.9682 29.2533 66.3914 28.7715C66.8146 28.2897 67.3322 27.9154 67.9441 27.6484C68.5561 27.375 69.2527 27.2383 70.034 27.2383C70.8283 27.2383 71.5314 27.375 72.1434 27.6484C72.7618 27.9154 73.2827 28.2897 73.7059 28.7715C74.129 29.2533 74.4513 29.8229 74.6727 30.4805C74.894 31.1315 75.0047 31.8444 75.0047 32.6191V32.8242C75.0047 33.5924 74.894 34.3053 74.6727 34.9629C74.4513 35.6139 74.129 36.1836 73.7059 36.6719C73.2827 37.1536 72.7651 37.528 72.1531 37.7949C71.5411 38.0618 70.8413 38.1953 70.0535 38.1953C69.2723 38.1953 68.5724 38.0618 67.9539 37.7949C67.3354 37.528 66.8146 37.1536 66.3914 36.6719C65.9682 36.1836 65.646 35.6139 65.4246 34.9629C65.2033 34.3053 65.0926 33.5924 65.0926 32.8242ZM67.6707 32.6191V32.8242C67.6707 33.2865 67.7163 33.7194 67.8074 34.123C67.8986 34.5267 68.0385 34.8815 68.2273 35.1875C68.4161 35.4935 68.6603 35.7344 68.9598 35.9102C69.2658 36.0794 69.6303 36.1641 70.0535 36.1641C70.4702 36.1641 70.8283 36.0794 71.1277 35.9102C71.4272 35.7344 71.6714 35.4935 71.8602 35.1875C72.0555 34.8815 72.1987 34.5267 72.2898 34.123C72.381 33.7194 72.4266 33.2865 72.4266 32.8242V32.6191C72.4266 32.1634 72.381 31.737 72.2898 31.3398C72.1987 30.9362 72.0555 30.5814 71.8602 30.2754C71.6714 29.9629 71.424 29.7188 71.118 29.543C70.8185 29.3607 70.4572 29.2695 70.034 29.2695C69.6173 29.2695 69.2592 29.3607 68.9598 29.543C68.6603 29.7188 68.4161 29.9629 68.2273 30.2754C68.0385 30.5814 67.8986 30.9362 67.8074 31.3398C67.7163 31.737 67.6707 32.1634 67.6707 32.6191ZM79.009 29.6895V38H76.4309V27.4336H78.8527L79.009 29.6895ZM78.5988 32.3359H77.8371C77.8436 31.5677 77.9478 30.8711 78.1496 30.2461C78.3514 29.6211 78.6346 29.084 78.9992 28.6348C79.3703 28.1855 79.8098 27.8405 80.3176 27.5996C80.8254 27.3587 81.3918 27.2383 82.0168 27.2383C82.5246 27.2383 82.9836 27.3099 83.3937 27.4531C83.8039 27.5964 84.1555 27.8242 84.4484 28.1367C84.7479 28.4492 84.9758 28.8594 85.132 29.3672C85.2948 29.8685 85.3762 30.487 85.3762 31.2227V38H82.7785V31.2031C82.7785 30.7214 82.7069 30.3405 82.5637 30.0605C82.427 29.7806 82.2251 29.582 81.9582 29.4648C81.6978 29.3477 81.3755 29.2891 80.9914 29.2891C80.5943 29.2891 80.246 29.3704 79.9465 29.5332C79.6535 29.6895 79.4061 29.9076 79.2043 30.1875C79.009 30.4674 78.8592 30.7897 78.7551 31.1543C78.6509 31.5189 78.5988 31.9128 78.5988 32.3359ZM92.2516 27.4336V29.2891H86.1969V27.4336H92.2516ZM87.818 24.8359H90.4059V34.9531C90.4059 35.2656 90.4482 35.5065 90.5328 35.6758C90.6174 35.8451 90.7444 35.959 90.9137 36.0176C91.0829 36.0762 91.2848 36.1055 91.5191 36.1055C91.6884 36.1055 91.8447 36.0957 91.9879 36.0762C92.1311 36.0566 92.2516 36.0371 92.3492 36.0176L92.359 37.9512C92.1441 38.0228 91.9 38.0814 91.6266 38.127C91.3596 38.1725 91.0569 38.1953 90.7184 38.1953C90.1389 38.1953 89.6311 38.0977 89.1949 37.9023C88.7587 37.7005 88.4202 37.3783 88.1793 36.9355C87.9384 36.4863 87.818 35.8939 87.818 35.1582V24.8359ZM96.3047 27.4336V38H93.7168V27.4336H96.3047ZM93.541 24.6699C93.541 24.2858 93.6712 23.9668 93.9316 23.7129C94.1986 23.459 94.5566 23.332 95.0059 23.332C95.4551 23.332 95.8099 23.459 96.0703 23.7129C96.3372 23.9668 96.4707 24.2858 96.4707 24.6699C96.4707 25.0475 96.3372 25.3633 96.0703 25.6172C95.8099 25.8711 95.4551 25.998 95.0059 25.998C94.5566 25.998 94.1986 25.8711 93.9316 25.6172C93.6712 25.3633 93.541 25.0475 93.541 24.6699ZM100.895 29.6895V38H98.3168V27.4336H100.739L100.895 29.6895ZM100.485 32.3359H99.723C99.7296 31.5677 99.8337 30.8711 100.036 30.2461C100.237 29.6211 100.521 29.084 100.885 28.6348C101.256 28.1855 101.696 27.8405 102.204 27.5996C102.711 27.3587 103.278 27.2383 103.903 27.2383C104.411 27.2383 104.87 27.3099 105.28 27.4531C105.69 27.5964 106.041 27.8242 106.334 28.1367C106.634 28.4492 106.862 28.8594 107.018 29.3672C107.181 29.8685 107.262 30.487 107.262 31.2227V38H104.664V31.2031C104.664 30.7214 104.593 30.3405 104.45 30.0605C104.313 29.7806 104.111 29.582 103.844 29.4648C103.584 29.3477 103.261 29.2891 102.877 29.2891C102.48 29.2891 102.132 29.3704 101.832 29.5332C101.539 29.6895 101.292 29.9076 101.09 30.1875C100.895 30.4674 100.745 30.7897 100.641 31.1543C100.537 31.5189 100.485 31.9128 100.485 32.3359ZM115.427 35.4902V27.4336H118.024V38H115.583L115.427 35.4902ZM115.759 33.3027L116.559 33.2832C116.559 33.9928 116.481 34.6471 116.325 35.2461C116.169 35.8451 115.925 36.3659 115.593 36.8086C115.267 37.2448 114.854 37.5866 114.352 37.834C113.851 38.0749 113.259 38.1953 112.575 38.1953C112.054 38.1953 111.579 38.1237 111.149 37.9805C110.72 37.8307 110.348 37.5996 110.036 37.2871C109.73 36.9681 109.492 36.5612 109.323 36.0664C109.154 35.5651 109.069 34.9629 109.069 34.2598V27.4336H111.647V34.2793C111.647 34.6309 111.686 34.9238 111.764 35.1582C111.849 35.3926 111.963 35.5846 112.106 35.7344C112.256 35.8776 112.429 35.9818 112.624 36.0469C112.826 36.1055 113.04 36.1348 113.268 36.1348C113.893 36.1348 114.385 36.0111 114.743 35.7637C115.108 35.5098 115.368 35.1712 115.524 34.748C115.68 34.3184 115.759 33.8366 115.759 33.3027ZM125.73 35.7539V30.8809C125.73 30.5228 125.668 30.2135 125.544 29.9531C125.42 29.6927 125.232 29.4909 124.978 29.3477C124.724 29.2044 124.402 29.1328 124.011 29.1328C123.666 29.1328 123.363 29.1914 123.103 29.3086C122.849 29.4258 122.654 29.5918 122.517 29.8066C122.38 30.015 122.312 30.2559 122.312 30.5293H119.724C119.724 30.0931 119.828 29.6797 120.036 29.2891C120.245 28.8919 120.541 28.5404 120.925 28.2344C121.316 27.9219 121.781 27.6777 122.321 27.502C122.868 27.3262 123.48 27.2383 124.157 27.2383C124.958 27.2383 125.671 27.375 126.296 27.6484C126.928 27.9154 127.422 28.319 127.78 28.8594C128.145 29.3997 128.327 30.0801 128.327 30.9004V35.5098C128.327 36.0371 128.36 36.4896 128.425 36.8672C128.497 37.2383 128.601 37.5605 128.737 37.834V38H126.111C125.987 37.7331 125.892 37.3945 125.827 36.9844C125.762 36.5677 125.73 36.1576 125.73 35.7539ZM126.091 31.5645L126.111 33.0977H124.48C124.076 33.0977 123.721 33.14 123.415 33.2246C123.109 33.3027 122.859 33.4199 122.663 33.5762C122.468 33.7259 122.321 33.9082 122.224 34.123C122.126 34.3314 122.077 34.569 122.077 34.8359C122.077 35.0964 122.136 35.3307 122.253 35.5391C122.377 35.7474 122.553 35.9134 122.78 36.0371C123.015 36.1543 123.288 36.2129 123.601 36.2129C124.057 36.2129 124.454 36.1217 124.792 35.9395C125.131 35.7507 125.394 35.5228 125.583 35.2559C125.772 34.9889 125.873 34.735 125.886 34.4941L126.628 35.6074C126.537 35.8743 126.4 36.1576 126.218 36.457C126.036 36.7565 125.801 37.0365 125.515 37.2969C125.228 37.5573 124.883 37.7721 124.48 37.9414C124.076 38.1107 123.607 38.1953 123.073 38.1953C122.39 38.1953 121.778 38.0586 121.237 37.7852C120.697 37.5117 120.271 37.1374 119.958 36.6621C119.646 36.1868 119.489 35.6465 119.489 35.041C119.489 34.4811 119.594 33.9863 119.802 33.5566C120.01 33.127 120.32 32.7656 120.73 32.4727C121.14 32.1732 121.648 31.9486 122.253 31.7988C122.865 31.6426 123.565 31.5645 124.353 31.5645H126.091ZM132.83 29.5918V38H130.252V27.4336H132.693L132.83 29.5918ZM136.043 27.3652L136.004 29.7676C135.86 29.7415 135.698 29.722 135.515 29.709C135.339 29.696 135.173 29.6895 135.017 29.6895C134.62 29.6895 134.272 29.7448 133.972 29.8555C133.673 29.9596 133.422 30.1126 133.22 30.3145C133.025 30.5163 132.875 30.7637 132.771 31.0566C132.667 31.3431 132.608 31.6686 132.595 32.0332L132.039 31.9648C132.039 31.2943 132.107 30.6725 132.244 30.0996C132.38 29.5267 132.579 29.0254 132.839 28.5957C133.1 28.166 133.425 27.834 133.816 27.5996C134.213 27.3587 134.669 27.2383 135.183 27.2383C135.326 27.2383 135.479 27.2513 135.642 27.2773C135.811 27.2969 135.945 27.3262 136.043 27.3652Z" fill="white"/>
<defs>
<linearGradient id="paint0_linear_395_941" x1="-12.69" y1="-17.9014" x2="221.305" y2="58.3515" gradientUnits="userSpaceOnUse">
<stop stop-color="#003B6D"/>
<stop offset="1" stop-color="#005297"/>
</linearGradient>
</defs>
</svg>
