<svg width="20" height="20" viewBox="0 0 20 20" fill="none" xmlns="http://www.w3.org/2000/svg">
<path d="M9.17367 1.08049C9.43547 0.464583 9.56643 0.156628 9.74873 0.061795C9.90705 -0.0205983 10.093 -0.0205983 10.2513 0.061795C10.4336 0.156628 10.5646 0.464583 10.8264 1.08049L12.9117 5.9863C12.9892 6.16838 13.0279 6.25941 13.0878 6.32913C13.1407 6.39082 13.2055 6.44016 13.2778 6.47394C13.3596 6.51212 13.4541 6.52258 13.6432 6.5435L18.7371 7.10727C19.3766 7.17804 19.6963 7.21342 19.8387 7.36591C19.9623 7.49836 20.0197 7.68383 19.9939 7.86721C19.9643 8.07829 19.7255 8.30396 19.2478 8.75542L15.4427 12.3512C15.3015 12.4846 15.2308 12.5513 15.1862 12.6326C15.1466 12.7046 15.1218 12.7844 15.1136 12.8669C15.1042 12.9602 15.1239 13.0577 15.1633 13.2528L16.2261 18.507C16.3596 19.1666 16.4263 19.4964 16.332 19.6855C16.25 19.8498 16.0996 19.9644 15.9253 19.9953C15.7247 20.0309 15.4462 19.8625 14.8891 19.5256L10.452 16.842C10.2874 16.7424 10.205 16.6927 10.1175 16.6731C10.04 16.656 9.95998 16.656 9.88251 16.6731C9.79498 16.6927 9.71265 16.7424 9.54799 16.842L5.11095 19.5256C4.5539 19.8625 4.27537 20.0309 4.07474 19.9953C3.90046 19.9644 3.75 19.8498 3.66808 19.6855C3.57378 19.4964 3.64049 19.1666 3.77392 18.507L4.83669 13.2528C4.87613 13.0577 4.89586 12.9602 4.88649 12.8669C4.8782 12.7844 4.85347 12.7046 4.81389 12.6326C4.76916 12.5513 4.69855 12.4846 4.55734 12.3512L0.752309 8.75542C0.274608 8.30396 0.035752 8.07829 0.00605475 7.86721C-0.0197296 7.68383 0.0377312 7.49836 0.161383 7.36591C0.30374 7.21342 0.6235 7.17804 1.26302 7.10727L6.35689 6.5435C6.54596 6.52258 6.64048 6.51212 6.72222 6.47394C6.79454 6.44016 6.85929 6.39082 6.91229 6.32913C6.97217 6.25941 7.01087 6.16838 7.08828 5.9863L9.17367 1.08049Z" fill="#003B6D"/>
</svg>
