<svg width="40" height="62" viewBox="0 0 40 62" fill="none" xmlns="http://www.w3.org/2000/svg">
<path d="M0 25.5746C0 23.926 1.33646 22.5896 2.98507 22.5896H14.9254C16.574 22.5896 17.9104 23.926 17.9104 25.5746V37.5149C17.9104 39.1635 16.574 40.5 14.9254 40.5H2.98507C1.33646 40.5 0 39.1635 0 37.5149V25.5746Z" fill="url(#paint0_linear_461_544)"/>
<path d="M22.0896 25.5746C22.0896 23.926 23.426 22.5896 25.0746 22.5896H37.0149C38.6635 22.5896 40 23.926 40 25.5746V37.5149C40 39.1635 38.6635 40.5 37.0149 40.5H25.0746C23.426 40.5 22.0896 39.1635 22.0896 37.5149V25.5746Z" fill="url(#paint1_linear_461_544)"/>
<path d="M22.0896 3.48507C22.0896 1.83646 23.426 0.5 25.0746 0.5H37.0149C38.6635 0.5 40 1.83646 40 3.48507V15.4254C40 17.074 38.6635 18.4104 37.0149 18.4104H25.0746C23.426 18.4104 22.0896 17.074 22.0896 15.4254V3.48507Z" fill="url(#paint2_linear_461_544)"/>
<path d="M0 3.48507C0 1.83646 1.33646 0.5 2.98507 0.5H14.9254C16.574 0.5 17.9104 1.83646 17.9104 3.48507V15.4254C17.9104 17.074 16.574 18.4104 14.9254 18.4104H2.98507C1.33646 18.4104 0 17.074 0 15.4254V3.48507Z" fill="url(#paint3_linear_461_544)"/>
<path d="M7.76562 52.9688V61.5H6.01367V52.9688H7.76562ZM10.959 56.5137V61.5H9.27148V55.1602H10.8535L10.959 56.5137ZM10.7129 58.1074H10.2559C10.2559 57.6387 10.3164 57.2168 10.4375 56.8418C10.5586 56.4629 10.7285 56.1406 10.9473 55.875C11.166 55.6055 11.4258 55.4004 11.7266 55.2598C12.0312 55.1152 12.3711 55.043 12.7461 55.043C13.043 55.043 13.3145 55.0859 13.5605 55.1719C13.8066 55.2578 14.0176 55.3945 14.1934 55.582C14.373 55.7695 14.5098 56.0176 14.6035 56.3262C14.7012 56.6348 14.75 57.0117 14.75 57.457V61.5H13.0508V57.4512C13.0508 57.1699 13.0117 56.9512 12.9336 56.7949C12.8555 56.6387 12.7402 56.5293 12.5879 56.4668C12.4395 56.4004 12.2559 56.3672 12.0371 56.3672C11.8105 56.3672 11.6133 56.4121 11.4453 56.502C11.2812 56.5918 11.1445 56.7168 11.0352 56.877C10.9297 57.0332 10.8496 57.2168 10.7949 57.4277C10.7402 57.6387 10.7129 57.8652 10.7129 58.1074ZM17.8555 55.1602V61.5H16.1621V55.1602H17.8555ZM16.2148 54.3926L17.3633 52.5879H19.1973L17.5859 54.3926H16.2148ZM21.9336 60.2988C22.1406 60.2988 22.3242 60.2598 22.4844 60.1816C22.6445 60.0996 22.7695 59.9863 22.8594 59.8418C22.9531 59.6934 23.002 59.5195 23.0059 59.3203H24.5938C24.5898 59.7656 24.4707 60.1621 24.2363 60.5098C24.002 60.8535 23.6875 61.125 23.293 61.3242C22.8984 61.5195 22.457 61.6172 21.9688 61.6172C21.4766 61.6172 21.0469 61.5352 20.6797 61.3711C20.3164 61.207 20.0137 60.9805 19.7715 60.6914C19.5293 60.3984 19.3477 60.0586 19.2266 59.6719C19.1055 59.2812 19.0449 58.8633 19.0449 58.418V58.248C19.0449 57.7988 19.1055 57.3809 19.2266 56.9941C19.3477 56.6035 19.5293 56.2637 19.7715 55.9746C20.0137 55.6816 20.3164 55.4531 20.6797 55.2891C21.043 55.125 21.4688 55.043 21.957 55.043C22.4766 55.043 22.9316 55.1426 23.3223 55.3418C23.7168 55.541 24.0254 55.8262 24.248 56.1973C24.4746 56.5645 24.5898 57 24.5938 57.5039H23.0059C23.002 57.293 22.957 57.1016 22.8711 56.9297C22.7891 56.7578 22.668 56.6211 22.5078 56.5195C22.3516 56.4141 22.1582 56.3613 21.9277 56.3613C21.6816 56.3613 21.4805 56.4141 21.3242 56.5195C21.168 56.6211 21.0469 56.7617 20.9609 56.9414C20.875 57.1172 20.8145 57.3184 20.7793 57.5449C20.748 57.7676 20.7324 58.002 20.7324 58.248V58.418C20.7324 58.6641 20.748 58.9004 20.7793 59.127C20.8105 59.3535 20.8691 59.5547 20.9551 59.7305C21.0449 59.9062 21.168 60.0449 21.3242 60.1465C21.4805 60.248 21.6836 60.2988 21.9336 60.2988ZM27.3535 55.1602V61.5H25.6602V55.1602H27.3535ZM25.5547 53.5078C25.5547 53.2617 25.6406 53.0586 25.8125 52.8984C25.9844 52.7383 26.2148 52.6582 26.5039 52.6582C26.7891 52.6582 27.0176 52.7383 27.1895 52.8984C27.3652 53.0586 27.4531 53.2617 27.4531 53.5078C27.4531 53.7539 27.3652 53.957 27.1895 54.1172C27.0176 54.2773 26.7891 54.3574 26.5039 54.3574C26.2148 54.3574 25.9844 54.2773 25.8125 54.1172C25.6406 53.957 25.5547 53.7539 25.5547 53.5078ZM28.4785 58.3945V58.2715C28.4785 57.8066 28.5449 57.3789 28.6777 56.9883C28.8105 56.5938 29.0039 56.252 29.2578 55.9629C29.5117 55.6738 29.8242 55.4492 30.1953 55.2891C30.5664 55.125 30.9922 55.043 31.4727 55.043C31.9531 55.043 32.3809 55.125 32.7559 55.2891C33.1309 55.4492 33.4453 55.6738 33.6992 55.9629C33.957 56.252 34.1523 56.5938 34.2852 56.9883C34.418 57.3789 34.4844 57.8066 34.4844 58.2715V58.3945C34.4844 58.8555 34.418 59.2832 34.2852 59.6777C34.1523 60.0684 33.957 60.4102 33.6992 60.7031C33.4453 60.9922 33.1328 61.2168 32.7617 61.377C32.3906 61.5371 31.9648 61.6172 31.4844 61.6172C31.0039 61.6172 30.5762 61.5371 30.2012 61.377C29.8301 61.2168 29.5156 60.9922 29.2578 60.7031C29.0039 60.4102 28.8105 60.0684 28.6777 59.6777C28.5449 59.2832 28.4785 58.8555 28.4785 58.3945ZM30.166 58.2715V58.3945C30.166 58.6602 30.1895 58.9082 30.2363 59.1387C30.2832 59.3691 30.3574 59.5723 30.459 59.748C30.5645 59.9199 30.7012 60.0547 30.8691 60.1523C31.0371 60.25 31.2422 60.2988 31.4844 60.2988C31.7188 60.2988 31.9199 60.25 32.0879 60.1523C32.2559 60.0547 32.3906 59.9199 32.4922 59.748C32.5938 59.5723 32.668 59.3691 32.7148 59.1387C32.7656 58.9082 32.791 58.6602 32.791 58.3945V58.2715C32.791 58.0137 32.7656 57.7715 32.7148 57.5449C32.668 57.3145 32.5918 57.1113 32.4863 56.9355C32.3848 56.7559 32.25 56.6152 32.082 56.5137C31.9141 56.4121 31.7109 56.3613 31.4727 56.3613C31.2344 56.3613 31.0312 56.4121 30.8633 56.5137C30.6992 56.6152 30.5645 56.7559 30.459 56.9355C30.3574 57.1113 30.2832 57.3145 30.2363 57.5449C30.1895 57.7715 30.166 58.0137 30.166 58.2715Z" fill="#1E1E1E"/>
<defs>
<linearGradient id="paint0_linear_461_544" x1="-2.7" y1="-11.0493" x2="51.7444" y2="-5.19821" gradientUnits="userSpaceOnUse">
<stop stop-color="#003B6D"/>
<stop offset="1" stop-color="#005297"/>
</linearGradient>
<linearGradient id="paint1_linear_461_544" x1="-2.7" y1="-11.0493" x2="51.7444" y2="-5.19821" gradientUnits="userSpaceOnUse">
<stop stop-color="#003B6D"/>
<stop offset="1" stop-color="#005297"/>
</linearGradient>
<linearGradient id="paint2_linear_461_544" x1="-2.7" y1="-11.0493" x2="51.7444" y2="-5.19821" gradientUnits="userSpaceOnUse">
<stop stop-color="#003B6D"/>
<stop offset="1" stop-color="#005297"/>
</linearGradient>
<linearGradient id="paint3_linear_461_544" x1="-2.7" y1="-11.0493" x2="51.7444" y2="-5.19821" gradientUnits="userSpaceOnUse">
<stop stop-color="#003B6D"/>
<stop offset="1" stop-color="#005297"/>
</linearGradient>
</defs>
</svg>
