<svg width="39" height="52" viewBox="0 0 39 52" fill="none" xmlns="http://www.w3.org/2000/svg">
<path d="M4.5 5.5C4.5 2.73858 6.73858 0.5 9.5 0.5H29.5C32.2614 0.5 34.5 2.73858 34.5 5.5V25.5C34.5 28.2614 32.2614 30.5 29.5 30.5H9.5C6.73858 30.5 4.5 28.2614 4.5 25.5V5.5Z" stroke="#AAAAAA" stroke-miterlimit="10"/>
<path d="M26.72 8.66113C26.887 8.25119 26.4782 7.84243 26.0683 8.00944L11.1607 14.0829C10.7544 14.2484 10.7431 14.8196 11.1425 15.0011L16.8745 17.6066C16.9846 17.6566 17.0728 17.7448 17.1228 17.8549L19.7283 23.5869C19.9098 23.9863 20.481 23.975 20.6465 23.5687L26.72 8.66113Z" stroke="#AAAAAA" stroke-miterlimit="10"/>
<path d="M3.02539 46.7119H1.12598V45.9453H3.02539C3.39323 45.9453 3.69108 45.8867 3.91895 45.7695C4.14681 45.6523 4.31283 45.4896 4.41699 45.2812C4.52441 45.0729 4.57812 44.8353 4.57812 44.5684C4.57812 44.3242 4.52441 44.0947 4.41699 43.8799C4.31283 43.665 4.14681 43.4925 3.91895 43.3623C3.69108 43.2288 3.39323 43.1621 3.02539 43.1621H1.3457V49.5H0.40332V42.3906H3.02539C3.5625 42.3906 4.0166 42.4834 4.3877 42.6689C4.75879 42.8545 5.04036 43.1117 5.23242 43.4404C5.42448 43.766 5.52051 44.1387 5.52051 44.5586C5.52051 45.0143 5.42448 45.4033 5.23242 45.7256C5.04036 46.0479 4.75879 46.2936 4.3877 46.4629C4.0166 46.6289 3.5625 46.7119 3.02539 46.7119ZM8.69922 49.5977C8.33138 49.5977 7.99772 49.5358 7.69824 49.4121C7.40202 49.2852 7.14648 49.1077 6.93164 48.8799C6.72005 48.652 6.55729 48.3818 6.44336 48.0693C6.32943 47.7568 6.27246 47.415 6.27246 47.0439V46.8389C6.27246 46.4092 6.33594 46.0267 6.46289 45.6914C6.58984 45.3529 6.76237 45.0664 6.98047 44.832C7.19857 44.5977 7.44596 44.4202 7.72266 44.2998C7.99935 44.1794 8.28581 44.1191 8.58203 44.1191C8.95964 44.1191 9.28516 44.1842 9.55859 44.3145C9.83529 44.4447 10.0615 44.627 10.2373 44.8613C10.4131 45.0924 10.5433 45.3659 10.6279 45.6816C10.7126 45.9941 10.7549 46.3359 10.7549 46.707V47.1123H6.80957V46.375H9.85156V46.3066C9.83854 46.0723 9.78971 45.8444 9.70508 45.623C9.6237 45.4017 9.49349 45.2194 9.31445 45.0762C9.13542 44.9329 8.89128 44.8613 8.58203 44.8613C8.37695 44.8613 8.18815 44.9053 8.01562 44.9932C7.8431 45.0778 7.69499 45.2048 7.57129 45.374C7.44759 45.5433 7.35156 45.75 7.2832 45.9941C7.21484 46.2383 7.18066 46.5199 7.18066 46.8389V47.0439C7.18066 47.2946 7.21484 47.5306 7.2832 47.752C7.35482 47.9701 7.45736 48.1621 7.59082 48.3281C7.72754 48.4941 7.89193 48.6243 8.08398 48.7188C8.2793 48.8132 8.50065 48.8604 8.74805 48.8604C9.06706 48.8604 9.33724 48.7952 9.55859 48.665C9.77995 48.5348 9.97363 48.3607 10.1396 48.1426L10.6865 48.5771C10.5726 48.7497 10.4277 48.9141 10.252 49.0703C10.0762 49.2266 9.8597 49.3535 9.60254 49.4512C9.34863 49.5488 9.04753 49.5977 8.69922 49.5977ZM12.7129 45.0469V49.5H11.8096V44.2168H12.6885L12.7129 45.0469ZM14.3633 44.1875L14.3584 45.0273C14.2835 45.0111 14.2119 45.0013 14.1436 44.998C14.0785 44.9915 14.0036 44.9883 13.9189 44.9883C13.7106 44.9883 13.5267 45.0208 13.3672 45.0859C13.2077 45.151 13.0726 45.2422 12.9619 45.3594C12.8512 45.4766 12.7633 45.6165 12.6982 45.7793C12.6364 45.9388 12.5957 46.1146 12.5762 46.3066L12.3223 46.4531C12.3223 46.1341 12.3532 45.8346 12.415 45.5547C12.4801 45.2747 12.5794 45.0273 12.7129 44.8125C12.8464 44.5944 13.0156 44.4251 13.2207 44.3047C13.429 44.181 13.6764 44.1191 13.9629 44.1191C14.028 44.1191 14.1029 44.1273 14.1875 44.1436C14.2721 44.1566 14.3307 44.1712 14.3633 44.1875ZM17.2148 48.8555C17.4297 48.8555 17.6283 48.8115 17.8105 48.7236C17.9928 48.6357 18.1426 48.5153 18.2598 48.3623C18.377 48.2061 18.4437 48.0286 18.46 47.8301H19.3193C19.3031 48.1426 19.1973 48.4339 19.002 48.7041C18.8099 48.971 18.5576 49.1875 18.2451 49.3535C17.9326 49.5163 17.5892 49.5977 17.2148 49.5977C16.8177 49.5977 16.471 49.5277 16.1748 49.3877C15.8818 49.2477 15.6377 49.0557 15.4424 48.8115C15.2503 48.5674 15.1055 48.2874 15.0078 47.9717C14.9134 47.6527 14.8662 47.3158 14.8662 46.9609V46.7559C14.8662 46.401 14.9134 46.0658 15.0078 45.75C15.1055 45.431 15.2503 45.1494 15.4424 44.9053C15.6377 44.6611 15.8818 44.4691 16.1748 44.3291C16.471 44.1891 16.8177 44.1191 17.2148 44.1191C17.6283 44.1191 17.9896 44.2038 18.2988 44.373C18.6081 44.5391 18.8506 44.7669 19.0264 45.0566C19.2054 45.3431 19.3031 45.6686 19.3193 46.0332H18.46C18.4437 45.8151 18.3818 45.6182 18.2744 45.4424C18.1702 45.2666 18.027 45.1266 17.8447 45.0225C17.6657 44.915 17.4557 44.8613 17.2148 44.8613C16.9382 44.8613 16.7054 44.9167 16.5166 45.0273C16.3311 45.1348 16.1829 45.2812 16.0723 45.4668C15.9648 45.6491 15.8867 45.8525 15.8379 46.0771C15.7923 46.2985 15.7695 46.5247 15.7695 46.7559V46.9609C15.7695 47.1921 15.7923 47.4199 15.8379 47.6445C15.8835 47.8691 15.96 48.0726 16.0674 48.2549C16.1781 48.4372 16.3262 48.5837 16.5117 48.6943C16.7005 48.8018 16.9349 48.8555 17.2148 48.8555ZM23.5674 48.2793V44.2168H24.4756V49.5H23.6113L23.5674 48.2793ZM23.7383 47.166L24.1143 47.1562C24.1143 47.5078 24.0768 47.8333 24.002 48.1328C23.9303 48.429 23.8132 48.6862 23.6504 48.9043C23.4876 49.1224 23.2744 49.2933 23.0107 49.417C22.7471 49.5374 22.4264 49.5977 22.0488 49.5977C21.7917 49.5977 21.5557 49.5602 21.3408 49.4854C21.1292 49.4105 20.9469 49.2949 20.7939 49.1387C20.641 48.9824 20.5221 48.779 20.4375 48.5283C20.3561 48.2777 20.3154 47.9766 20.3154 47.625V44.2168H21.2188V47.6348C21.2188 47.8724 21.2448 48.0693 21.2969 48.2256C21.3522 48.3786 21.4255 48.5007 21.5166 48.5918C21.611 48.6797 21.7152 48.7415 21.8291 48.7773C21.9463 48.8132 22.0667 48.8311 22.1904 48.8311C22.5745 48.8311 22.8789 48.7578 23.1035 48.6113C23.3281 48.4616 23.4893 48.2614 23.5869 48.0107C23.6878 47.7568 23.7383 47.4753 23.7383 47.166ZM26.7559 45.0469V49.5H25.8525V44.2168H26.7314L26.7559 45.0469ZM28.4062 44.1875L28.4014 45.0273C28.3265 45.0111 28.2549 45.0013 28.1865 44.998C28.1214 44.9915 28.0465 44.9883 27.9619 44.9883C27.7536 44.9883 27.5697 45.0208 27.4102 45.0859C27.2507 45.151 27.1156 45.2422 27.0049 45.3594C26.8942 45.4766 26.8063 45.6165 26.7412 45.7793C26.6794 45.9388 26.6387 46.1146 26.6191 46.3066L26.3652 46.4531C26.3652 46.1341 26.3962 45.8346 26.458 45.5547C26.5231 45.2747 26.6224 45.0273 26.7559 44.8125C26.8893 44.5944 27.0586 44.4251 27.2637 44.3047C27.472 44.181 27.7194 44.1191 28.0059 44.1191C28.071 44.1191 28.1458 44.1273 28.2305 44.1436C28.3151 44.1566 28.3737 44.1712 28.4062 44.1875ZM32.3174 48.0986C32.3174 47.9684 32.2881 47.848 32.2295 47.7373C32.1742 47.6234 32.0586 47.5208 31.8828 47.4297C31.7103 47.3353 31.4499 47.2539 31.1016 47.1855C30.8086 47.1237 30.5433 47.0505 30.3057 46.9658C30.0713 46.8812 29.8711 46.7786 29.7051 46.6582C29.5423 46.5378 29.417 46.3962 29.3291 46.2334C29.2412 46.0706 29.1973 45.8802 29.1973 45.6621C29.1973 45.4538 29.2428 45.2568 29.334 45.0713C29.4284 44.8857 29.5602 44.7214 29.7295 44.5781C29.902 44.4349 30.1087 44.3226 30.3496 44.2412C30.5905 44.1598 30.859 44.1191 31.1553 44.1191C31.5785 44.1191 31.9398 44.194 32.2393 44.3438C32.5387 44.4935 32.7682 44.6937 32.9277 44.9443C33.0872 45.1917 33.167 45.4668 33.167 45.7695H32.2637C32.2637 45.623 32.2197 45.4814 32.1318 45.3447C32.0472 45.2048 31.9219 45.0892 31.7559 44.998C31.5931 44.9069 31.3929 44.8613 31.1553 44.8613C30.9046 44.8613 30.7012 44.9004 30.5449 44.9785C30.3919 45.0534 30.2796 45.1494 30.208 45.2666C30.1396 45.3838 30.1055 45.5075 30.1055 45.6377C30.1055 45.7354 30.1217 45.8232 30.1543 45.9014C30.1901 45.9762 30.252 46.0462 30.3398 46.1113C30.4277 46.1732 30.5514 46.2318 30.7109 46.2871C30.8704 46.3424 31.0739 46.3978 31.3213 46.4531C31.7542 46.5508 32.1107 46.668 32.3906 46.8047C32.6706 46.9414 32.8789 47.109 33.0156 47.3076C33.1523 47.5062 33.2207 47.7471 33.2207 48.0303C33.2207 48.2614 33.1719 48.473 33.0742 48.665C32.9798 48.8571 32.8415 49.0231 32.6592 49.1631C32.4801 49.2998 32.2653 49.4072 32.0146 49.4854C31.7673 49.5602 31.4889 49.5977 31.1797 49.5977C30.7142 49.5977 30.3203 49.5146 29.998 49.3486C29.6758 49.1826 29.4316 48.9678 29.2656 48.7041C29.0996 48.4404 29.0166 48.1621 29.0166 47.8691H29.9248C29.9378 48.1165 30.0094 48.3135 30.1396 48.46C30.2699 48.6032 30.4294 48.7057 30.6182 48.7676C30.807 48.8262 30.9941 48.8555 31.1797 48.8555C31.4271 48.8555 31.6338 48.8229 31.7998 48.7578C31.9691 48.6927 32.0977 48.6032 32.1855 48.4893C32.2734 48.3753 32.3174 48.2451 32.3174 48.0986ZM34.168 46.917V46.8047C34.168 46.4238 34.2233 46.0706 34.334 45.7451C34.4447 45.4163 34.6042 45.1315 34.8125 44.8906C35.0208 44.6465 35.2731 44.4577 35.5693 44.3242C35.8656 44.1875 36.1976 44.1191 36.5654 44.1191C36.9365 44.1191 37.2702 44.1875 37.5664 44.3242C37.8659 44.4577 38.1198 44.6465 38.3281 44.8906C38.5397 45.1315 38.7008 45.4163 38.8115 45.7451C38.9222 46.0706 38.9775 46.4238 38.9775 46.8047V46.917C38.9775 47.2979 38.9222 47.651 38.8115 47.9766C38.7008 48.3021 38.5397 48.5869 38.3281 48.8311C38.1198 49.0719 37.8675 49.2607 37.5713 49.3975C37.2783 49.5309 36.9463 49.5977 36.5752 49.5977C36.2041 49.5977 35.8704 49.5309 35.5742 49.3975C35.278 49.2607 35.0241 49.0719 34.8125 48.8311C34.6042 48.5869 34.4447 48.3021 34.334 47.9766C34.2233 47.651 34.168 47.2979 34.168 46.917ZM35.0713 46.8047V46.917C35.0713 47.1807 35.1022 47.4297 35.1641 47.6641C35.2259 47.8952 35.3187 48.1003 35.4424 48.2793C35.5693 48.4583 35.7272 48.5999 35.916 48.7041C36.1048 48.805 36.3245 48.8555 36.5752 48.8555C36.8226 48.8555 37.0391 48.805 37.2246 48.7041C37.4134 48.5999 37.5697 48.4583 37.6934 48.2793C37.8171 48.1003 37.9098 47.8952 37.9717 47.6641C38.0368 47.4297 38.0693 47.1807 38.0693 46.917V46.8047C38.0693 46.5443 38.0368 46.2985 37.9717 46.0674C37.9098 45.833 37.8154 45.6263 37.6885 45.4473C37.5648 45.265 37.4085 45.1217 37.2197 45.0176C37.0342 44.9134 36.8161 44.8613 36.5654 44.8613C36.318 44.8613 36.0999 44.9134 35.9111 45.0176C35.7256 45.1217 35.5693 45.265 35.4424 45.4473C35.3187 45.6263 35.2259 45.833 35.1641 46.0674C35.1022 46.2985 35.0713 46.5443 35.0713 46.8047Z" fill="#AAAAAA"/>
</svg>
