<svg width="25" height="54" viewBox="0 0 25 54" fill="none" xmlns="http://www.w3.org/2000/svg">
<path d="M1.13635 31C1.13635 24.5567 6.22403 19.3333 12.5 19.3333C18.776 19.3333 23.8636 24.5567 23.8636 31M18.9935 7.66667C18.9935 11.3486 16.0862 14.3333 12.5 14.3333C8.91372 14.3333 6.00648 11.3486 6.00648 7.66667C6.00648 3.98477 8.91372 1 12.5 1C16.0862 1 18.9935 3.98477 18.9935 7.66667Z" stroke="#AAAAAA" stroke-linecap="round" stroke-linejoin="round"/>
<path d="M4.49219 47.2119H2.59277V46.4453H4.49219C4.86003 46.4453 5.15788 46.3867 5.38574 46.2695C5.61361 46.1523 5.77962 45.9896 5.88379 45.7812C5.99121 45.5729 6.04492 45.3353 6.04492 45.0684C6.04492 44.8242 5.99121 44.5947 5.88379 44.3799C5.77962 44.165 5.61361 43.9925 5.38574 43.8623C5.15788 43.7288 4.86003 43.6621 4.49219 43.6621H2.8125V50H1.87012V42.8906H4.49219C5.0293 42.8906 5.4834 42.9834 5.85449 43.1689C6.22559 43.3545 6.50716 43.6117 6.69922 43.9404C6.89128 44.266 6.9873 44.6387 6.9873 45.0586C6.9873 45.5143 6.89128 45.9033 6.69922 46.2256C6.50716 46.5479 6.22559 46.7936 5.85449 46.9629C5.4834 47.1289 5.0293 47.2119 4.49219 47.2119ZM10.166 50.0977C9.79818 50.0977 9.46452 50.0358 9.16504 49.9121C8.86882 49.7852 8.61328 49.6077 8.39844 49.3799C8.18685 49.152 8.02409 48.8818 7.91016 48.5693C7.79622 48.2568 7.73926 47.915 7.73926 47.5439V47.3389C7.73926 46.9092 7.80273 46.5267 7.92969 46.1914C8.05664 45.8529 8.22917 45.5664 8.44727 45.332C8.66536 45.0977 8.91276 44.9202 9.18945 44.7998C9.46615 44.6794 9.7526 44.6191 10.0488 44.6191C10.4264 44.6191 10.752 44.6842 11.0254 44.8145C11.3021 44.9447 11.5283 45.127 11.7041 45.3613C11.8799 45.5924 12.0101 45.8659 12.0947 46.1816C12.1794 46.4941 12.2217 46.8359 12.2217 47.207V47.6123H8.27637V46.875H11.3184V46.8066C11.3053 46.5723 11.2565 46.3444 11.1719 46.123C11.0905 45.9017 10.9603 45.7194 10.7812 45.5762C10.6022 45.4329 10.3581 45.3613 10.0488 45.3613C9.84375 45.3613 9.65495 45.4053 9.48242 45.4932C9.3099 45.5778 9.16178 45.7048 9.03809 45.874C8.91439 46.0433 8.81836 46.25 8.75 46.4941C8.68164 46.7383 8.64746 47.0199 8.64746 47.3389V47.5439C8.64746 47.7946 8.68164 48.0306 8.75 48.252C8.82161 48.4701 8.92415 48.6621 9.05762 48.8281C9.19434 48.9941 9.35872 49.1243 9.55078 49.2188C9.74609 49.3132 9.96745 49.3604 10.2148 49.3604C10.5339 49.3604 10.804 49.2952 11.0254 49.165C11.2467 49.0348 11.4404 48.8607 11.6064 48.6426L12.1533 49.0771C12.0394 49.2497 11.8945 49.4141 11.7188 49.5703C11.543 49.7266 11.3265 49.8535 11.0693 49.9512C10.8154 50.0488 10.5143 50.0977 10.166 50.0977ZM14.1797 45.5469V50H13.2764V44.7168H14.1553L14.1797 45.5469ZM15.8301 44.6875L15.8252 45.5273C15.7503 45.5111 15.6787 45.5013 15.6104 45.498C15.5452 45.4915 15.4704 45.4883 15.3857 45.4883C15.1774 45.4883 14.9935 45.5208 14.834 45.5859C14.6745 45.651 14.5394 45.7422 14.4287 45.8594C14.318 45.9766 14.2301 46.1165 14.165 46.2793C14.1032 46.4388 14.0625 46.6146 14.043 46.8066L13.7891 46.9531C13.7891 46.6341 13.82 46.3346 13.8818 46.0547C13.9469 45.7747 14.0462 45.5273 14.1797 45.3125C14.3132 45.0944 14.4824 44.9251 14.6875 44.8047C14.8958 44.681 15.1432 44.6191 15.4297 44.6191C15.4948 44.6191 15.5697 44.6273 15.6543 44.6436C15.7389 44.6566 15.7975 44.6712 15.8301 44.6875ZM17.8711 50H16.9678V44.2578C16.9678 43.8574 17.0459 43.5189 17.2021 43.2422C17.3584 42.9655 17.5814 42.7555 17.8711 42.6123C18.1608 42.4691 18.5042 42.3975 18.9014 42.3975C19.1357 42.3975 19.3652 42.4268 19.5898 42.4854C19.8145 42.5407 20.0456 42.6107 20.2832 42.6953L20.1318 43.457C19.9821 43.3984 19.8079 43.3431 19.6094 43.291C19.4141 43.2357 19.1992 43.208 18.9648 43.208C18.5775 43.208 18.2975 43.2959 18.125 43.4717C17.9557 43.6442 17.8711 43.9062 17.8711 44.2578V50ZM18.9502 44.7168V45.4102H16.1328V44.7168H18.9502ZM20.7275 44.7168V50H19.8242V44.7168H20.7275ZM23.1934 42.5V50H22.2852V42.5H23.1934Z" fill="#AAAAAA"/>
</svg>
