<svg width="41" height="52" viewBox="0 0 41 52" fill="none" xmlns="http://www.w3.org/2000/svg">
<path d="M12.5 16.6111L17.4231 21.5L28.5 10.5M10.5 30.5H30.5C33.2614 30.5 35.5 28.2614 35.5 25.5V5.5C35.5 2.73858 33.2614 0.5 30.5 0.5H10.5C7.73858 0.5 5.5 2.73858 5.5 5.5V25.5C5.5 28.2614 7.73858 30.5 10.5 30.5Z" stroke="#AAAAAA" stroke-linecap="round" stroke-linejoin="round"/>
<path d="M3.16113 46.7119H1.26172V45.9453H3.16113C3.52897 45.9453 3.82682 45.8867 4.05469 45.7695C4.28255 45.6523 4.44857 45.4896 4.55273 45.2812C4.66016 45.0729 4.71387 44.8353 4.71387 44.5684C4.71387 44.3242 4.66016 44.0947 4.55273 43.8799C4.44857 43.665 4.28255 43.4925 4.05469 43.3623C3.82682 43.2288 3.52897 43.1621 3.16113 43.1621H1.48145V49.5H0.539062V42.3906H3.16113C3.69824 42.3906 4.15234 42.4834 4.52344 42.6689C4.89453 42.8545 5.17611 43.1117 5.36816 43.4404C5.56022 43.766 5.65625 44.1387 5.65625 44.5586C5.65625 45.0143 5.56022 45.4033 5.36816 45.7256C5.17611 46.0479 4.89453 46.2936 4.52344 46.4629C4.15234 46.6289 3.69824 46.7119 3.16113 46.7119ZM7.61426 45.0469V49.5H6.71094V44.2168H7.58984L7.61426 45.0469ZM9.26465 44.1875L9.25977 45.0273C9.1849 45.0111 9.11328 45.0013 9.04492 44.998C8.97982 44.9915 8.90495 44.9883 8.82031 44.9883C8.61198 44.9883 8.42806 45.0208 8.26855 45.0859C8.10905 45.151 7.97396 45.2422 7.86328 45.3594C7.7526 45.4766 7.66471 45.6165 7.59961 45.7793C7.53776 45.9388 7.49707 46.1146 7.47754 46.3066L7.22363 46.4531C7.22363 46.1341 7.25456 45.8346 7.31641 45.5547C7.38151 45.2747 7.48079 45.0273 7.61426 44.8125C7.74772 44.5944 7.91699 44.4251 8.12207 44.3047C8.3304 44.181 8.5778 44.1191 8.86426 44.1191C8.92936 44.1191 9.00423 44.1273 9.08887 44.1436C9.1735 44.1566 9.2321 44.1712 9.26465 44.1875ZM12.1943 49.5977C11.8265 49.5977 11.4928 49.5358 11.1934 49.4121C10.8971 49.2852 10.6416 49.1077 10.4268 48.8799C10.2152 48.652 10.0524 48.3818 9.93848 48.0693C9.82454 47.7568 9.76758 47.415 9.76758 47.0439V46.8389C9.76758 46.4092 9.83105 46.0267 9.95801 45.6914C10.085 45.3529 10.2575 45.0664 10.4756 44.832C10.6937 44.5977 10.9411 44.4202 11.2178 44.2998C11.4945 44.1794 11.7809 44.1191 12.0771 44.1191C12.4548 44.1191 12.7803 44.1842 13.0537 44.3145C13.3304 44.4447 13.5566 44.627 13.7324 44.8613C13.9082 45.0924 14.0384 45.3659 14.123 45.6816C14.2077 45.9941 14.25 46.3359 14.25 46.707V47.1123H10.3047V46.375H13.3467V46.3066C13.3337 46.0723 13.2848 45.8444 13.2002 45.623C13.1188 45.4017 12.9886 45.2194 12.8096 45.0762C12.6305 44.9329 12.3864 44.8613 12.0771 44.8613C11.8721 44.8613 11.6833 44.9053 11.5107 44.9932C11.3382 45.0778 11.1901 45.2048 11.0664 45.374C10.9427 45.5433 10.8467 45.75 10.7783 45.9941C10.71 46.2383 10.6758 46.5199 10.6758 46.8389V47.0439C10.6758 47.2946 10.71 47.5306 10.7783 47.752C10.8499 47.9701 10.9525 48.1621 11.0859 48.3281C11.2227 48.4941 11.387 48.6243 11.5791 48.7188C11.7744 48.8132 11.9958 48.8604 12.2432 48.8604C12.5622 48.8604 12.8324 48.7952 13.0537 48.665C13.2751 48.5348 13.4688 48.3607 13.6348 48.1426L14.1816 48.5771C14.0677 48.7497 13.9229 48.9141 13.7471 49.0703C13.5713 49.2266 13.3548 49.3535 13.0977 49.4512C12.8438 49.5488 12.5426 49.5977 12.1943 49.5977ZM18.3809 48.0986C18.3809 47.9684 18.3516 47.848 18.293 47.7373C18.2376 47.6234 18.1221 47.5208 17.9463 47.4297C17.7738 47.3353 17.5133 47.2539 17.165 47.1855C16.8721 47.1237 16.6068 47.0505 16.3691 46.9658C16.1348 46.8812 15.9346 46.7786 15.7686 46.6582C15.6058 46.5378 15.4805 46.3962 15.3926 46.2334C15.3047 46.0706 15.2607 45.8802 15.2607 45.6621C15.2607 45.4538 15.3063 45.2568 15.3975 45.0713C15.4919 44.8857 15.6237 44.7214 15.793 44.5781C15.9655 44.4349 16.1722 44.3226 16.4131 44.2412C16.654 44.1598 16.9225 44.1191 17.2188 44.1191C17.6419 44.1191 18.0033 44.194 18.3027 44.3438C18.6022 44.4935 18.8317 44.6937 18.9912 44.9443C19.1507 45.1917 19.2305 45.4668 19.2305 45.7695H18.3271C18.3271 45.623 18.2832 45.4814 18.1953 45.3447C18.1107 45.2048 17.9854 45.0892 17.8193 44.998C17.6566 44.9069 17.4564 44.8613 17.2188 44.8613C16.9681 44.8613 16.7646 44.9004 16.6084 44.9785C16.4554 45.0534 16.3431 45.1494 16.2715 45.2666C16.2031 45.3838 16.1689 45.5075 16.1689 45.6377C16.1689 45.7354 16.1852 45.8232 16.2178 45.9014C16.2536 45.9762 16.3154 46.0462 16.4033 46.1113C16.4912 46.1732 16.6149 46.2318 16.7744 46.2871C16.9339 46.3424 17.1374 46.3978 17.3848 46.4531C17.8177 46.5508 18.1742 46.668 18.4541 46.8047C18.734 46.9414 18.9424 47.109 19.0791 47.3076C19.2158 47.5062 19.2842 47.7471 19.2842 48.0303C19.2842 48.2614 19.2354 48.473 19.1377 48.665C19.0433 48.8571 18.9049 49.0231 18.7227 49.1631C18.5436 49.2998 18.3288 49.4072 18.0781 49.4854C17.8307 49.5602 17.5524 49.5977 17.2432 49.5977C16.7777 49.5977 16.3838 49.5146 16.0615 49.3486C15.7393 49.1826 15.4951 48.9678 15.3291 48.7041C15.1631 48.4404 15.0801 48.1621 15.0801 47.8691H15.9883C16.0013 48.1165 16.0729 48.3135 16.2031 48.46C16.3333 48.6032 16.4928 48.7057 16.6816 48.7676C16.8704 48.8262 17.0576 48.8555 17.2432 48.8555C17.4906 48.8555 17.6973 48.8229 17.8633 48.7578C18.0326 48.6927 18.1611 48.6032 18.249 48.4893C18.3369 48.3753 18.3809 48.2451 18.3809 48.0986ZM22.6631 49.5977C22.2952 49.5977 21.9616 49.5358 21.6621 49.4121C21.3659 49.2852 21.1104 49.1077 20.8955 48.8799C20.6839 48.652 20.5212 48.3818 20.4072 48.0693C20.2933 47.7568 20.2363 47.415 20.2363 47.0439V46.8389C20.2363 46.4092 20.2998 46.0267 20.4268 45.6914C20.5537 45.3529 20.7262 45.0664 20.9443 44.832C21.1624 44.5977 21.4098 44.4202 21.6865 44.2998C21.9632 44.1794 22.2497 44.1191 22.5459 44.1191C22.9235 44.1191 23.249 44.1842 23.5225 44.3145C23.7992 44.4447 24.0254 44.627 24.2012 44.8613C24.377 45.0924 24.5072 45.3659 24.5918 45.6816C24.6764 45.9941 24.7188 46.3359 24.7188 46.707V47.1123H20.7734V46.375H23.8154V46.3066C23.8024 46.0723 23.7536 45.8444 23.6689 45.623C23.5876 45.4017 23.4574 45.2194 23.2783 45.0762C23.0993 44.9329 22.8551 44.8613 22.5459 44.8613C22.3408 44.8613 22.152 44.9053 21.9795 44.9932C21.807 45.0778 21.6589 45.2048 21.5352 45.374C21.4115 45.5433 21.3154 45.75 21.2471 45.9941C21.1787 46.2383 21.1445 46.5199 21.1445 46.8389V47.0439C21.1445 47.2946 21.1787 47.5306 21.2471 47.752C21.3187 47.9701 21.4212 48.1621 21.5547 48.3281C21.6914 48.4941 21.8558 48.6243 22.0479 48.7188C22.2432 48.8132 22.4645 48.8604 22.7119 48.8604C23.0309 48.8604 23.3011 48.7952 23.5225 48.665C23.7438 48.5348 23.9375 48.3607 24.1035 48.1426L24.6504 48.5771C24.5365 48.7497 24.3916 48.9141 24.2158 49.0703C24.04 49.2266 23.8236 49.3535 23.5664 49.4512C23.3125 49.5488 23.0114 49.5977 22.6631 49.5977ZM26.6768 45.3447V49.5H25.7734V44.2168H26.6279L26.6768 45.3447ZM26.4619 46.6582L26.0859 46.6436C26.0892 46.2822 26.1429 45.9486 26.2471 45.6426C26.3512 45.3333 26.4977 45.0648 26.6865 44.8369C26.8753 44.609 27.0999 44.4333 27.3604 44.3096C27.624 44.1826 27.9154 44.1191 28.2344 44.1191C28.4948 44.1191 28.7292 44.1549 28.9375 44.2266C29.1458 44.2949 29.3232 44.4056 29.4697 44.5586C29.6195 44.7116 29.7334 44.9102 29.8115 45.1543C29.8896 45.3952 29.9287 45.6898 29.9287 46.0381V49.5H29.0205V46.0283C29.0205 45.7516 28.9798 45.5303 28.8984 45.3643C28.8171 45.195 28.6982 45.0729 28.542 44.998C28.3857 44.9199 28.1937 44.8809 27.9658 44.8809C27.7412 44.8809 27.5361 44.9281 27.3506 45.0225C27.1683 45.1169 27.0104 45.2471 26.877 45.4131C26.7467 45.5791 26.6442 45.7695 26.5693 45.9844C26.4977 46.196 26.4619 46.4206 26.4619 46.6582ZM33.415 48.8555C33.6299 48.8555 33.8285 48.8115 34.0107 48.7236C34.193 48.6357 34.3428 48.5153 34.46 48.3623C34.5771 48.2061 34.6439 48.0286 34.6602 47.8301H35.5195C35.5033 48.1426 35.3975 48.4339 35.2021 48.7041C35.0101 48.971 34.7578 49.1875 34.4453 49.3535C34.1328 49.5163 33.7894 49.5977 33.415 49.5977C33.0179 49.5977 32.6712 49.5277 32.375 49.3877C32.082 49.2477 31.8379 49.0557 31.6426 48.8115C31.4505 48.5674 31.3057 48.2874 31.208 47.9717C31.1136 47.6527 31.0664 47.3158 31.0664 46.9609V46.7559C31.0664 46.401 31.1136 46.0658 31.208 45.75C31.3057 45.431 31.4505 45.1494 31.6426 44.9053C31.8379 44.6611 32.082 44.4691 32.375 44.3291C32.6712 44.1891 33.0179 44.1191 33.415 44.1191C33.8285 44.1191 34.1898 44.2038 34.499 44.373C34.8083 44.5391 35.0508 44.7669 35.2266 45.0566C35.4056 45.3431 35.5033 45.6686 35.5195 46.0332H34.6602C34.6439 45.8151 34.582 45.6182 34.4746 45.4424C34.3704 45.2666 34.2272 45.1266 34.0449 45.0225C33.8659 44.915 33.6559 44.8613 33.415 44.8613C33.1383 44.8613 32.9056 44.9167 32.7168 45.0273C32.5312 45.1348 32.3831 45.2812 32.2725 45.4668C32.165 45.6491 32.0869 45.8525 32.0381 46.0771C31.9925 46.2985 31.9697 46.5247 31.9697 46.7559V46.9609C31.9697 47.1921 31.9925 47.4199 32.0381 47.6445C32.0837 47.8691 32.1602 48.0726 32.2676 48.2549C32.3783 48.4372 32.5264 48.5837 32.7119 48.6943C32.9007 48.8018 33.1351 48.8555 33.415 48.8555ZM32.917 49.5488H33.5664L33.5078 49.8076C33.6966 49.8402 33.8675 49.9183 34.0205 50.042C34.1768 50.1657 34.2549 50.3691 34.2549 50.6523C34.2549 50.8053 34.2223 50.9437 34.1572 51.0674C34.0954 51.1943 34.0026 51.3018 33.8789 51.3896C33.7552 51.4808 33.6006 51.5508 33.415 51.5996C33.2327 51.6484 33.0195 51.6729 32.7754 51.6729L32.7412 51.1504C32.891 51.1504 33.026 51.1341 33.1465 51.1016C33.2702 51.069 33.3678 51.0169 33.4395 50.9453C33.5143 50.8737 33.5518 50.7809 33.5518 50.667C33.5518 50.5596 33.5241 50.4749 33.4688 50.4131C33.4134 50.3512 33.3271 50.304 33.21 50.2715C33.096 50.2422 32.9479 50.221 32.7656 50.208L32.917 49.5488ZM39.6504 48.5967V45.877C39.6504 45.6686 39.6081 45.488 39.5234 45.335C39.4421 45.1787 39.3184 45.0583 39.1523 44.9736C38.9863 44.889 38.7812 44.8467 38.5371 44.8467C38.3092 44.8467 38.109 44.8857 37.9365 44.9639C37.7673 45.042 37.6338 45.1445 37.5361 45.2715C37.4417 45.3984 37.3945 45.5352 37.3945 45.6816H36.4912C36.4912 45.4928 36.54 45.3057 36.6377 45.1201C36.7354 44.9346 36.8753 44.7669 37.0576 44.6172C37.2432 44.4642 37.4645 44.3438 37.7217 44.2559C37.9821 44.1647 38.2718 44.1191 38.5908 44.1191C38.9749 44.1191 39.3135 44.1842 39.6064 44.3145C39.9027 44.4447 40.1338 44.6416 40.2998 44.9053C40.4691 45.1657 40.5537 45.4928 40.5537 45.8867V48.3477C40.5537 48.5234 40.5684 48.7106 40.5977 48.9092C40.6302 49.1077 40.6774 49.2786 40.7393 49.4219V49.5H39.7969C39.7513 49.3958 39.7155 49.2575 39.6895 49.085C39.6634 48.9092 39.6504 48.7464 39.6504 48.5967ZM39.8066 46.2969L39.8164 46.9316H38.9033C38.6462 46.9316 38.4167 46.9528 38.2148 46.9951C38.013 47.0342 37.8438 47.0944 37.707 47.1758C37.5703 47.2572 37.4661 47.3597 37.3945 47.4834C37.3229 47.6038 37.2871 47.7454 37.2871 47.9082C37.2871 48.0742 37.3245 48.2256 37.3994 48.3623C37.4743 48.499 37.5866 48.6081 37.7363 48.6895C37.8893 48.7676 38.0765 48.8066 38.2979 48.8066C38.5745 48.8066 38.8187 48.748 39.0303 48.6309C39.2419 48.5137 39.4095 48.3704 39.5332 48.2012C39.6602 48.0319 39.7285 47.8675 39.7383 47.708L40.124 48.1426C40.1012 48.2793 40.0394 48.4307 39.9385 48.5967C39.8376 48.7627 39.7025 48.9222 39.5332 49.0752C39.3672 49.2249 39.1686 49.3503 38.9375 49.4512C38.7096 49.5488 38.4525 49.5977 38.166 49.5977C37.8079 49.5977 37.4938 49.5277 37.2236 49.3877C36.9567 49.2477 36.7484 49.0605 36.5986 48.8262C36.4521 48.5885 36.3789 48.3232 36.3789 48.0303C36.3789 47.7471 36.4342 47.498 36.5449 47.2832C36.6556 47.0651 36.8151 46.8844 37.0234 46.7412C37.2318 46.5947 37.4824 46.484 37.7754 46.4092C38.0684 46.3343 38.3955 46.2969 38.7568 46.2969H39.8066Z" fill="#AAAAAA"/>
</svg>
